<svg width="24" height="24" viewBox="0 0 24 24" fill="none" xmlns="http://www.w3.org/2000/svg">
<path d="M13.0779 1.05028C10.4711 0.801058 7.86037 1.48382 5.71317 2.97628C3.56596 4.46875 2.02257 6.67344 1.35938 9.19553C0.696182 11.7176 0.956507 14.3924 2.09373 16.7408C3.23096 19.0892 5.1708 20.9579 7.56587 22.0123C8.95295 22.6367 10.4534 22.9728 11.9755 23C14.3986 23.0002 16.7542 22.2056 18.6781 20.7392C18.9103 20.5629 19.0628 20.3021 19.1021 20.0141C19.1413 19.726 19.0642 19.4342 18.8876 19.2027C18.7998 19.0867 18.6898 18.9891 18.5639 18.9158C18.438 18.8424 18.2987 18.7946 18.1541 18.7752C18.0096 18.7558 17.8625 18.7652 17.7216 18.8028C17.5807 18.8403 17.4487 18.9054 17.3332 18.9942C16.1899 19.8539 14.8533 20.4234 13.4392 20.6534C12.0251 20.8833 10.576 20.7668 9.21728 20.3139C7.85857 19.8609 6.63118 19.0853 5.64129 18.054C4.65139 17.0226 3.92881 15.7667 3.53607 14.3949C3.14332 13.0231 3.09223 11.5766 3.38722 10.1807C3.68222 8.78484 4.3144 7.48152 5.22909 6.38353C6.14378 5.28554 7.31342 4.42595 8.63681 3.87914C9.96021 3.33233 11.3975 3.11476 12.8244 3.24525C15.0388 3.50041 17.0795 4.56404 18.5517 6.23042C20.024 7.8968 20.8232 10.0475 20.7947 12.2666V13.0129C20.7935 13.265 20.7412 13.5143 20.641 13.7459C20.5408 13.9774 20.3948 14.1865 20.2116 14.3607C20.0285 14.5348 19.812 14.6704 19.575 14.7594C19.3381 14.8484 19.0855 14.8889 18.8325 14.8786C18.3278 14.8234 17.8629 14.5799 17.5315 14.197C17.2001 13.8141 17.0268 13.3204 17.0466 12.8153V8.07419C17.0466 7.78312 16.9304 7.50397 16.7237 7.29815C16.5169 7.09233 16.2365 6.9767 15.9442 6.9767C15.675 6.97443 15.4143 7.07027 15.2112 7.24616C15.0082 7.42205 14.8767 7.66582 14.8418 7.93152C13.8158 6.96966 12.4587 6.43554 11.0495 6.43894C10.0917 6.44608 9.15167 6.69719 8.31895 7.16835C7.48622 7.63952 6.7885 8.31504 6.29223 9.13061C5.79595 9.94618 5.51765 10.8746 5.4838 11.8276C5.44996 12.7805 5.6617 13.7263 6.09888 14.5747C6.53606 15.4231 7.18411 16.146 7.98133 16.6745C8.77855 17.2031 9.6984 17.5196 10.6533 17.5941C11.6082 17.6686 12.5663 17.4985 13.4365 17.1C14.3067 16.7015 15.0599 16.0879 15.6245 15.3176C15.9444 15.8104 16.3707 16.2261 16.8722 16.5344C17.3737 16.8427 17.9379 17.0359 18.5238 17.1C19.1097 17.1641 19.7026 17.0975 20.2594 16.905C20.8162 16.7125 21.3229 16.3989 21.7428 15.9871C22.1469 15.6043 22.4671 15.1426 22.6834 14.6307C22.8997 14.1189 23.0073 13.5681 22.9996 13.0129V12.2666C23.0242 9.50858 22.0253 6.83859 20.1943 4.76868C18.3633 2.69877 15.8292 1.37465 13.0779 1.05028V1.05028ZM11.0715 15.4164C10.3978 15.4164 9.7392 15.2175 9.17901 14.8448C8.61883 14.4722 8.18222 13.9426 7.92439 13.3229C7.66657 12.7032 7.59911 12.0214 7.73054 11.3635C7.86198 10.7057 8.18641 10.1014 8.66281 9.62718C9.13921 9.1529 9.74618 8.82992 10.407 8.69907C11.0677 8.56822 11.7527 8.63538 12.3751 8.89205C12.9976 9.14872 13.5296 9.58339 13.9039 10.1411C14.2782 10.6988 14.478 11.3544 14.478 12.0251C14.4751 12.9237 14.1152 13.7846 13.477 14.4199C12.8388 15.0553 11.9741 15.4135 11.0715 15.4164V15.4164Z" fill="white"/>
</svg>
