<svg width="24" height="24" viewBox="0 0 24 24" fill="none" xmlns="http://www.w3.org/2000/svg">
<path d="M12 1C9.08262 1 6.28473 2.15893 4.22183 4.22183C2.15893 6.28473 1 9.08262 1 12C1 14.9173 2.15893 17.7153 4.22183 19.7782C6.28473 21.841 9.08262 23 12 23C14.9173 23 17.7153 21.841 19.7782 19.7782C21.841 17.7153 23 14.9173 23 12C23 9.08262 21.841 6.28473 19.7782 4.22183C17.7153 2.15893 14.9173 1 12 1Z" fill="url(#paint0_linear_1_14)"/>
<path d="M18.1304 11.2322C18.3749 11.3976 18.6 11.5616 18.6 12.1384C18.6 12.7165 18.2818 12.9504 17.9414 13.1131C18.0805 13.3326 18.1249 13.5962 18.065 13.8471C17.9581 14.3096 17.5204 14.6686 17.1313 14.7748C17.2994 15.0356 17.3522 15.2924 17.1522 15.6084C16.8951 16.005 16.6714 16.1556 15.6821 16.1556H11.6526C10.2798 16.1556 9.56841 15.4215 9.56841 14.8111V11.6718C9.56841 10.0182 11.6068 8.61322 11.6068 7.46372L11.4595 6.03189C11.4525 5.9445 11.4706 5.73073 11.5401 5.66889C11.6512 5.56268 11.9583 5.4 12.4224 5.4C12.7253 5.4 12.9268 5.45512 13.1644 5.56537C13.9717 5.93778 14.1815 6.88023 14.1815 7.6385C14.1815 8.00285 13.6062 9.09453 13.5284 9.47232C13.5284 9.47232 14.7331 9.21419 16.1392 9.20478C17.6135 9.19671 18.5694 9.46022 18.5694 10.3368C18.5694 10.6877 18.2651 11.0399 18.1304 11.2322ZM6.23368 10.7778H7.34526C7.56636 10.7778 7.77841 10.8628 7.93476 11.0141C8.09111 11.1653 8.17894 11.3705 8.17894 11.5844V16.6933C8.17894 16.9072 8.09111 17.1124 7.93476 17.2638C7.77841 17.415 7.56636 17.5 7.34526 17.5H6.23368C6.01257 17.5 5.80052 17.415 5.64418 17.2638C5.48782 17.1124 5.39999 16.9072 5.39999 16.6933V11.5844C5.39999 11.3705 5.48782 11.1653 5.64418 11.0141C5.80052 10.8628 6.01257 10.7778 6.23368 10.7778Z" fill="white"/>
<defs>
<linearGradient id="paint0_linear_1_14" x1="12" y1="1" x2="12" y2="23" gradientUnits="userSpaceOnUse">
<stop stop-color="#18AFFF"/>
<stop offset="1" stop-color="#0062DF"/>
</linearGradient>
</defs>
</svg>
