<svg width="24" height="24" viewBox="0 0 24 24" fill="none" xmlns="http://www.w3.org/2000/svg">
<path fill-rule="evenodd" clip-rule="evenodd" d="M4.22183 4.22183C6.28473 2.15893 9.08262 1 12 1C14.9173 1 17.7153 2.15893 19.7782 4.22183C21.841 6.28473 23 9.08262 23 12C23 14.9173 21.841 17.7153 19.7782 19.7782C17.7153 21.841 14.9173 23 12 23C9.08262 23 6.28473 21.841 4.22183 19.7782C2.15893 17.7153 1 14.9173 1 12C1 9.08262 2.15893 6.28473 4.22183 4.22183ZM18.6 12.1384C18.6 11.5616 18.3749 11.3976 18.1304 11.2322C18.1498 11.2044 18.1728 11.1733 18.1979 11.1394C18.3467 10.9382 18.5694 10.637 18.5694 10.3368C18.5694 9.46022 17.6135 9.19671 16.1392 9.20478C14.7331 9.21419 13.5284 9.47232 13.5284 9.47232C13.5612 9.31291 13.6826 9.02639 13.812 8.72105C13.9893 8.30275 14.1815 7.84911 14.1815 7.6385C14.1815 6.88023 13.9717 5.93778 13.1644 5.56537C12.9268 5.45512 12.7253 5.4 12.4224 5.4C11.9583 5.4 11.6512 5.56268 11.5401 5.66889C11.4706 5.73073 11.4525 5.9445 11.4595 6.03189L11.6068 7.46372C11.6068 7.98636 11.1854 8.56181 10.7258 9.18943C10.1746 9.9422 9.56841 10.77 9.56841 11.6718V14.8111C9.56841 15.4215 10.2798 16.1556 11.6526 16.1556H15.6821C16.6714 16.1556 16.8951 16.005 17.1522 15.6084C17.3522 15.2924 17.2994 15.0356 17.1313 14.7748C17.5204 14.6686 17.9581 14.3096 18.065 13.8471C18.1249 13.5962 18.0805 13.3326 17.9414 13.1131C18.2818 12.9504 18.6 12.7165 18.6 12.1384ZM7.34526 10.7778H6.23368C6.01257 10.7778 5.80052 10.8628 5.64418 11.0141C5.48782 11.1653 5.39999 11.3705 5.39999 11.5844V16.6933C5.39999 16.9072 5.48782 17.1124 5.64418 17.2638C5.80052 17.415 6.01257 17.5 6.23368 17.5H7.34526C7.56636 17.5 7.77841 17.415 7.93476 17.2638C8.09111 17.1124 8.17894 16.9072 8.17894 16.6933V11.5844C8.17894 11.3705 8.09111 11.1653 7.93476 11.0141C7.77841 10.8628 7.56636 10.7778 7.34526 10.7778Z" fill="white"/>
</svg>
