<svg width="24" height="24" viewBox="0 0 24 24" fill="none" xmlns="http://www.w3.org/2000/svg">
<path d="M12.1651 1.00699C10.713 0.955048 9.26532 1.19301 7.90905 1.70655C6.55277 2.22009 5.31595 2.99861 4.273 3.99526C3.23005 4.99191 2.40251 6.18611 1.84018 7.506C1.27784 8.82589 0.992331 10.2442 1.00082 11.6756C0.982106 13.1617 1.28508 14.6347 1.88955 15.9964C2.49403 17.3581 3.38612 18.5772 4.50639 19.5726C4.59534 19.6507 4.66775 19.7453 4.71948 19.851C4.77121 19.9567 4.80123 20.0714 4.80783 20.1885V22.1463C4.81395 22.2906 4.8556 22.4313 4.92918 22.5562C5.00277 22.6812 5.10609 22.7866 5.23024 22.8635C5.35439 22.9403 5.49564 22.9863 5.64183 22.9974C5.78802 23.0085 5.93475 22.9844 6.06939 22.9272L8.30224 21.9703C8.4929 21.8994 8.70328 21.8994 8.89395 21.9703C9.94946 22.251 11.0383 22.3915 12.1316 22.3883C15.0096 22.3926 17.7715 21.2705 19.8098 19.2687C21.848 17.2669 22.9955 14.5495 23 11.7141C23.0044 8.87879 21.8654 6.15785 19.8335 4.14987C17.8015 2.14189 15.0431 1.01137 12.1651 1.00699V1.00699ZM18.8636 9.21194L15.5925 14.3373C15.4691 14.5303 15.3065 14.6959 15.1149 14.8238C14.9232 14.9518 14.7067 15.0392 14.4791 15.0805C14.2514 15.1218 14.0176 15.1162 13.7922 15.064C13.5669 15.0118 13.355 14.9142 13.1699 14.7772L10.5574 12.8525C10.4415 12.7668 10.3004 12.7205 10.1555 12.7205C10.0106 12.7205 9.86954 12.7668 9.75359 12.8525L6.22569 15.4921C6.12744 15.5668 6.00551 15.6047 5.88156 15.5992C5.75761 15.5937 5.63965 15.5451 5.54863 15.462C5.45761 15.3789 5.39942 15.2668 5.38439 15.1454C5.36936 15.0241 5.39845 14.9014 5.46652 14.7992L8.73765 9.67389C8.86102 9.48092 9.02366 9.31525 9.2153 9.18733C9.40694 9.05941 9.62342 8.97202 9.85107 8.93068C10.0787 8.88934 10.3126 8.89494 10.5379 8.94714C10.7633 8.99934 10.9752 9.09699 11.1603 9.23394L13.7727 11.1587C13.8887 11.2444 14.0297 11.2907 14.1746 11.2907C14.3196 11.2907 14.4606 11.2444 14.5766 11.1587L18.1045 8.51903C18.2027 8.44438 18.3246 8.40645 18.4486 8.41197C18.5725 8.41748 18.6905 8.4661 18.7815 8.54917C18.8725 8.63225 18.9307 8.74441 18.9458 8.86574C18.9608 8.98708 18.9317 9.10974 18.8636 9.21194Z" fill="white"/>
</svg>
